<svg width="18" height="18" viewBox="0 0 18 18" fill="none" xmlns="http://www.w3.org/2000/svg">
<g clip-path="url(#clip0_11:514)">
<path d="M16.3081 4.02333L15.9106 2.832C15.7593 2.37827 15.3362 2.07339 14.858 2.07339H11.5177V0.985886C11.5177 0.442337 11.0758 0 10.5324 0H7.47355C6.93027 0 6.48821 0.442337 6.48821 0.985886V2.07339H3.14809C2.66977 2.07339 2.24666 2.37827 2.09533 2.832L1.6979 4.02333C1.6074 4.29456 1.65326 4.59489 1.82039 4.82684C1.98752 5.05879 2.25792 5.19736 2.54384 5.19736H2.95926L3.8736 16.5038C3.94158 17.3427 4.65349 18 5.49463 18H12.6969C13.5379 18 14.2499 17.3427 14.3178 16.5037L15.2321 5.19736H15.4621C15.748 5.19736 16.0184 5.05879 16.1856 4.82698C16.3527 4.59503 16.3986 4.29456 16.3081 4.02333ZM7.5429 1.05469H10.4631V2.07339H7.5429V1.05469ZM13.2665 16.4187C13.2426 16.7141 12.9924 16.9453 12.6969 16.9453H5.49463C5.1991 16.9453 4.94889 16.7141 4.92499 16.4187L4.01738 5.19736H14.174L13.2665 16.4187ZM2.77002 4.14267L3.09591 3.16571C3.10332 3.14319 3.12433 3.12808 3.14809 3.12808H14.858C14.8818 3.12808 14.9026 3.14319 14.9102 3.16571L15.2361 4.14267H2.77002Z" fill="#52555F"/>
<path d="M11.5846 16.3811C11.5939 16.3816 11.6031 16.3818 11.6125 16.3818C11.8911 16.3818 12.124 16.1634 12.1386 15.8819L12.6338 6.37568C12.6489 6.08482 12.4253 5.83667 12.1346 5.82156C11.843 5.80604 11.5957 6.02989 11.5805 6.32075L11.0854 15.827C11.0703 16.1178 11.2937 16.366 11.5846 16.3811Z" fill="#52555F"/>
<path d="M5.89099 15.8835C5.90637 16.1646 6.139 16.3821 6.41709 16.3821C6.4267 16.3821 6.43659 16.3819 6.44634 16.3813C6.73707 16.3655 6.95995 16.117 6.94416 15.8261L6.42547 6.31991C6.40968 6.02905 6.16111 5.80616 5.87025 5.82209C5.57952 5.83789 5.35664 6.08645 5.37243 6.37731L5.89099 15.8835Z" fill="#52555F"/>
<path d="M9.00891 16.3822C9.30019 16.3822 9.53625 16.1461 9.53625 15.8548V6.34863C9.53625 6.05736 9.30019 5.82129 9.00891 5.82129C8.71764 5.82129 8.48157 6.05736 8.48157 6.34863V15.8548C8.48157 16.1461 8.71764 16.3822 9.00891 16.3822Z" fill="#52555F"/>
</g>
<defs>
<clipPath id="clip0_11:514">
<rect width="18" height="18" fill="white"/>
</clipPath>
</defs>
</svg>
