<svg width="377" height="120" viewBox="0 0 377 120" fill="none" xmlns="http://www.w3.org/2000/svg">
<path d="M30.1318 68.0059L22.96 75.875V95H5.47852V22.4844H22.96V54.459L29.0361 45.2451L44.6748 22.4844H66.29L41.7861 54.5586L66.29 95H45.5713L30.1318 68.0059ZM100.307 95C99.709 93.9043 99.1777 92.2939 98.7129 90.1689C95.625 94.0537 91.3086 95.9961 85.7637 95.9961C80.6836 95.9961 76.3672 94.4688 72.8145 91.4141C69.2617 88.3262 67.4854 84.458 67.4854 79.8096C67.4854 73.9658 69.6436 69.5498 73.96 66.5615C78.2764 63.5732 84.5518 62.0791 92.7861 62.0791H97.9658V59.2402C97.9658 54.293 95.8242 51.8193 91.541 51.8193C87.5566 51.8193 85.5645 53.7783 85.5645 57.6963H68.7803C68.7803 52.4834 70.9883 48.25 75.4043 44.9961C79.8535 41.7422 85.5146 40.1152 92.3877 40.1152C99.2607 40.1152 104.689 41.792 108.674 45.1455C112.658 48.499 114.7 53.0977 114.8 58.9414V82.7979C114.866 87.7451 115.63 91.5303 117.091 94.1533V95H100.307ZM89.7979 84.043C91.8896 84.043 93.6162 83.5947 94.9775 82.6982C96.3721 81.8018 97.3682 80.7891 97.9658 79.6602V71.0439H93.085C87.2412 71.0439 84.3193 73.667 84.3193 78.9131C84.3193 80.4404 84.834 81.6855 85.8633 82.6484C86.8926 83.5781 88.2041 84.043 89.7979 84.043ZM174.167 68.4541C174.167 76.8213 172.274 83.5117 168.489 88.5254C164.737 93.5059 159.657 95.9961 153.249 95.9961C148.302 95.9961 144.234 94.1865 141.047 90.5674V115.719H124.263V41.1113H139.951L140.449 46.0918C143.67 42.1074 147.903 40.1152 153.149 40.1152C159.79 40.1152 164.953 42.5723 168.639 47.4863C172.324 52.3672 174.167 59.0908 174.167 67.6572V68.4541ZM157.383 67.4082C157.383 57.8457 154.594 53.0645 149.016 53.0645C145.031 53.0645 142.375 54.4922 141.047 57.3477V78.5645C142.508 81.5527 145.197 83.0469 149.115 83.0469C154.461 83.0469 157.217 78.4316 157.383 69.2012V67.4082ZM213.712 89.1729C210.159 93.7217 205.361 95.9961 199.318 95.9961C193.408 95.9961 188.926 94.2861 185.871 90.8662C182.85 87.4131 181.339 82.4658 181.339 76.0244V41.1113H198.123V76.124C198.123 80.7393 200.364 83.0469 204.847 83.0469C208.698 83.0469 211.438 81.6689 213.064 78.9131V41.1113H229.948V95H214.21L213.712 89.1729ZM267.401 79.8594C267.401 78.4316 266.654 77.2861 265.16 76.4229C263.666 75.5596 260.827 74.6631 256.644 73.7334C252.46 72.8037 249.007 71.5918 246.284 70.0977C243.562 68.5703 241.486 66.7275 240.059 64.5693C238.631 62.4111 237.917 59.9375 237.917 57.1484C237.917 52.2012 239.959 48.1338 244.043 44.9463C248.127 41.7256 253.473 40.1152 260.08 40.1152C267.186 40.1152 272.896 41.7256 277.213 44.9463C281.529 48.167 283.688 52.4004 283.688 57.6465H266.854C266.854 53.3301 264.579 51.1719 260.03 51.1719C258.271 51.1719 256.793 51.6699 255.598 52.666C254.402 53.6289 253.805 54.8408 253.805 56.3018C253.805 57.7959 254.535 59.0078 255.996 59.9375C257.457 60.8672 259.781 61.6309 262.969 62.2285C266.189 62.8262 269.012 63.54 271.436 64.3701C279.537 67.1592 283.588 72.1562 283.588 79.3613C283.588 84.2754 281.396 88.2764 277.014 91.3643C272.664 94.4521 267.02 95.9961 260.08 95.9961C255.465 95.9961 251.348 95.166 247.729 93.5059C244.109 91.8457 241.287 89.5879 239.262 86.7324C237.236 83.877 236.224 80.8721 236.224 77.7178H251.912C251.979 80.208 252.809 82.0342 254.402 83.1963C255.996 84.3252 258.038 84.8896 260.528 84.8896C262.819 84.8896 264.529 84.4248 265.658 83.4951C266.82 82.5654 267.401 81.3535 267.401 79.8594ZM311.03 27.7139V41.1113H319.896V52.7656H311.03V77.4189C311.03 79.4443 311.396 80.8555 312.126 81.6523C312.856 82.4492 314.301 82.8477 316.459 82.8477C318.119 82.8477 319.514 82.748 320.643 82.5488V94.5518C317.621 95.5146 314.467 95.9961 311.18 95.9961C305.402 95.9961 301.136 94.6348 298.38 91.9121C295.624 89.1895 294.246 85.0557 294.246 79.5107V52.7656H287.373V41.1113H294.246V27.7139H311.03ZM356.9 95C356.303 93.9043 355.771 92.2939 355.307 90.1689C352.219 94.0537 347.902 95.9961 342.357 95.9961C337.277 95.9961 332.961 94.4688 329.408 91.4141C325.855 88.3262 324.079 84.458 324.079 79.8096C324.079 73.9658 326.237 69.5498 330.554 66.5615C334.87 63.5732 341.146 62.0791 349.38 62.0791H354.56V59.2402C354.56 54.293 352.418 51.8193 348.135 51.8193C344.15 51.8193 342.158 53.7783 342.158 57.6963H325.374C325.374 52.4834 327.582 48.25 331.998 44.9961C336.447 41.7422 342.108 40.1152 348.981 40.1152C355.854 40.1152 361.283 41.792 365.268 45.1455C369.252 48.499 371.294 53.0977 371.394 58.9414V82.7979C371.46 87.7451 372.224 91.5303 373.685 94.1533V95H356.9ZM346.392 84.043C348.483 84.043 350.21 83.5947 351.571 82.6982C352.966 81.8018 353.962 80.7891 354.56 79.6602V71.0439H349.679C343.835 71.0439 340.913 73.667 340.913 78.9131C340.913 80.4404 341.428 81.6855 342.457 82.6484C343.486 83.5781 344.798 84.043 346.392 84.043Z" fill="black"/>
<rect x="257" y="28" width="8" height="13" fill="black"/>
<rect x="257" y="95" width="8" height="13" fill="black"/>
</svg>
